<svg width="20" height="20" viewBox="0 0 20 20" fill="none" xmlns="http://www.w3.org/2000/svg">
    <path
        d="M12.9833 9.99993C12.9833 11.6499 11.65 12.9833 10 12.9833C8.35 12.9833 7.01666 11.6499 7.01666 9.99993C7.01666 8.34993 8.35 7.0166 10 7.0166C11.65 7.0166 12.9833 8.34993 12.9833 9.99993Z"
        stroke="currentColor" stroke-width="1.5" stroke-linecap="round" stroke-linejoin="round" />
    <path
        d="M10 16.8918C12.9417 16.8918 15.6833 15.1584 17.5917 12.1584C18.3417 10.9834 18.3417 9.00843 17.5917 7.83343C15.6833 4.83343 12.9417 3.1001 10 3.1001C7.05834 3.1001 4.31667 4.83343 2.40834 7.83343C1.65834 9.00843 1.65834 10.9834 2.40834 12.1584C4.31667 15.1584 7.05834 16.8918 10 16.8918Z"
        stroke="currentColor" stroke-width="1.5" stroke-linecap="round" stroke-linejoin="round" />
</svg>