<svg width="25" height="24" viewBox="0 0 25 24" fill="none" xmlns="http://www.w3.org/2000/svg">
    <g clip-path="url(#clip0_9138_23085)">
        <path
            d="M15.25 7.75H14.5C14.5 8.99264 13.4926 10 12.25 10V10.75V11.5C14.3211 11.5 16 9.82107 16 7.75H15.25ZM12.25 10.75V10C11.0074 10 10 8.99264 10 7.75H9.25H8.5C8.5 9.82107 10.1789 11.5 12.25 11.5V10.75ZM9.25 7.75H10C10 6.50736 11.0074 5.5 12.25 5.5V4.75V4C10.1789 4 8.5 5.67893 8.5 7.75H9.25ZM12.25 4.75V5.5C13.4926 5.5 14.5 6.50736 14.5 7.75H15.25H16C16 5.67893 14.3211 4 12.25 4V4.75ZM9.25 13.75V14.5H15.25V13.75V13H9.25V13.75ZM15.25 19.75V19H9.25V19.75V20.5H15.25V19.75ZM9.25 19.75V19C8.00736 19 7 17.9926 7 16.75H6.25H5.5C5.5 18.8211 7.17893 20.5 9.25 20.5V19.75ZM18.25 16.75H17.5C17.5 17.9926 16.4926 19 15.25 19V19.75V20.5C17.3211 20.5 19 18.8211 19 16.75H18.25ZM15.25 13.75V14.5C16.4926 14.5 17.5 15.5074 17.5 16.75H18.25H19C19 14.6789 17.3211 13 15.25 13V13.75ZM9.25 13.75V13C7.17893 13 5.5 14.6789 5.5 16.75H6.25H7C7 15.5074 8.00736 14.5 9.25 14.5V13.75Z"
            fill="currentColor" />
        <path
            d="M8.00214 10.3887C7.84441 10.1353 7.54846 10 7.25 10C6.00736 10 5 8.99264 5 7.75C5 6.50736 6.00736 5.5 7.25 5.5C7.54846 5.5 7.84441 5.36473 8.00214 5.11135C8.00912 5.10014 8.01613 5.08896 8.0232 5.07782C8.2858 4.66331 8.15275 4.0764 7.665 4.0227C7.52873 4.0077 7.39027 4 7.25 4C5.17893 4 3.5 5.67893 3.5 7.75C3.5 9.82107 5.17893 11.5 7.25 11.5C7.39027 11.5 7.52873 11.4923 7.665 11.4773C8.15275 11.4236 8.2858 10.8367 8.0232 10.4222C8.01614 10.411 8.00912 10.3999 8.00214 10.3887Z"
            fill="currentColor" />
        <path
            d="M4.95829 18.3169C4.84477 18.1275 4.64439 18 4.42359 18H4.25C3.00736 18 2 16.9926 2 15.75C2 14.5074 3.00736 13.5 4.25 13.5H4.42359C4.64439 13.5 4.84477 13.3725 4.95829 13.1831C5.23539 12.7208 4.93468 12 4.39569 12H4.25C2.17893 12 0.5 13.6789 0.5 15.75C0.5 17.8211 2.17893 19.5 4.25 19.5H4.39569C4.93469 19.5 5.23539 18.7792 4.95829 18.3169Z"
            fill="currentColor" />
        <path
            d="M16.4768 10.4222C16.2142 10.8367 16.3473 11.4236 16.835 11.4773C16.9713 11.4923 17.1097 11.5 17.25 11.5C19.3211 11.5 21 9.82107 21 7.75C21 5.67893 19.3211 4 17.25 4C17.1097 4 16.9713 4.0077 16.835 4.0227C16.3473 4.0764 16.2142 4.66331 16.4768 5.07782C16.4839 5.08896 16.4909 5.10014 16.4979 5.11134C16.6556 5.36472 16.9515 5.5 17.25 5.5C18.4926 5.5 19.5 6.50736 19.5 7.75C19.5 8.99264 18.4926 10 17.25 10C16.9515 10 16.6556 10.1353 16.4979 10.3887C16.4909 10.3999 16.4839 10.411 16.4768 10.4222Z"
            fill="currentColor" />
        <path
            d="M19.5417 18.3169C19.2646 18.7792 19.5653 19.5 20.1043 19.5H20.25C22.3211 19.5 24 17.8211 24 15.75C24 13.6789 22.3211 12 20.25 12H20.1043C19.5653 12 19.2646 12.7208 19.5417 13.1831C19.6552 13.3725 19.8556 13.5 20.0764 13.5H20.25C21.4926 13.5 22.5 14.5074 22.5 15.75C22.5 16.9926 21.4926 18 20.25 18H20.0764C19.8556 18 19.6552 18.1275 19.5417 18.3169Z"
            fill="currentColor" />
        <path
            d="M8.00214 10.3887C7.84441 10.1353 7.54846 10 7.25 10C6.00736 10 5 8.99264 5 7.75C5 6.50736 6.00736 5.5 7.25 5.5C7.54846 5.5 7.84441 5.36473 8.00214 5.11135C8.00912 5.10014 8.01613 5.08896 8.0232 5.07782C8.2858 4.66331 8.15275 4.0764 7.665 4.0227C7.52873 4.0077 7.39027 4 7.25 4C5.17893 4 3.5 5.67893 3.5 7.75C3.5 9.82107 5.17893 11.5 7.25 11.5C7.39027 11.5 7.52873 11.4923 7.665 11.4773C8.15275 11.4236 8.2858 10.8367 8.0232 10.4222C8.01614 10.411 8.00912 10.3999 8.00214 10.3887Z"
            stroke="currentColor" />
        <path
            d="M4.95829 18.3169C4.84477 18.1275 4.64439 18 4.42359 18H4.25C3.00736 18 2 16.9926 2 15.75C2 14.5074 3.00736 13.5 4.25 13.5H4.42359C4.64439 13.5 4.84477 13.3725 4.95829 13.1831C5.23539 12.7208 4.93468 12 4.39569 12H4.25C2.17893 12 0.5 13.6789 0.5 15.75C0.5 17.8211 2.17893 19.5 4.25 19.5H4.39569C4.93469 19.5 5.23539 18.7792 4.95829 18.3169Z"
            stroke="currentColor" />
        <path
            d="M16.4768 10.4222C16.2142 10.8367 16.3473 11.4236 16.835 11.4773C16.9713 11.4923 17.1097 11.5 17.25 11.5C19.3211 11.5 21 9.82107 21 7.75C21 5.67893 19.3211 4 17.25 4C17.1097 4 16.9713 4.0077 16.835 4.0227C16.3473 4.0764 16.2142 4.66331 16.4768 5.07782C16.4839 5.08896 16.4909 5.10014 16.4979 5.11134C16.6556 5.36472 16.9515 5.5 17.25 5.5C18.4926 5.5 19.5 6.50736 19.5 7.75C19.5 8.99264 18.4926 10 17.25 10C16.9515 10 16.6556 10.1353 16.4979 10.3887C16.4909 10.3999 16.4839 10.411 16.4768 10.4222Z"
            stroke="currentColor" />
        <path
            d="M19.5417 18.3169C19.2646 18.7792 19.5653 19.5 20.1043 19.5H20.25C22.3211 19.5 24 17.8211 24 15.75C24 13.6789 22.3211 12 20.25 12H20.1043C19.5653 12 19.2646 12.7208 19.5417 13.1831C19.6552 13.3725 19.8556 13.5 20.0764 13.5H20.25C21.4926 13.5 22.5 14.5074 22.5 15.75C22.5 16.9926 21.4926 18 20.25 18H20.0764C19.8556 18 19.6552 18.1275 19.5417 18.3169Z"
            stroke="currentColor" />
    </g>
    <defs>
        <clipPath id="clip0_9138_23085">
            <rect width="24" height="24" fill="white" transform="translate(0.25)" />
        </clipPath>
    </defs>
</svg>